<svg width="955" height="955" viewBox="0 0 955 955" fill="none" xmlns="http://www.w3.org/2000/svg">
<g clip-path="url(#clip0_210_670)">
<path d="M755.363 0C865.612 0 954.896 89.3882 954.896 199.637V479.27C954.896 570.743 955 662.217 955 753.587C955 754.213 955 754.839 954.896 755.465V755.468C955 758.597 954.896 761.831 954.688 764.96C954.479 767.985 954.27 771.009 953.957 774.034C953.644 777.163 953.227 780.396 952.81 783.525C939.354 880.423 856.12 955 755.363 955H199.532C196.09 955 192.231 954.896 188.059 954.688C185.034 954.479 182.114 954.27 179.089 953.957C175.96 953.644 172.83 953.227 169.701 952.81C164.173 951.975 158.332 950.828 152.282 949.368C150.509 948.951 147.485 948.22 143.626 946.969C140.914 946.239 137.889 945.195 134.447 944.048C131.318 942.901 127.772 941.545 124.121 939.98C121.618 939.042 119.114 937.999 116.715 936.747C113.69 935.391 110.457 933.827 107.224 932.054C104.929 930.906 102.634 929.655 100.34 928.299C98.2538 927.152 96.0633 925.9 93.873 924.439C90.7441 922.562 87.7192 920.58 84.7988 918.494C83.8602 917.868 82.9211 917.243 81.9824 916.513C79.6878 914.844 77.2888 913.174 74.9941 911.297C72.9081 909.628 70.8214 907.855 68.7354 906.082C68.2139 905.665 67.7968 905.247 67.2754 904.83C64.9809 902.848 62.7906 900.763 60.4961 898.572C58.7229 896.799 56.9491 895.026 55.2803 893.253C53.6114 891.48 51.9434 889.706 50.3789 887.933C46.9369 884.073 43.807 880.11 40.7822 876.146C15.7497 843.395 0.730368 802.822 0.104492 758.493C0.104492 756.512 1.19618e-05 754.842 0 753.591V199.637C0 89.3882 89.2838 0 199.532 0H755.363Z" fill="#042222"/>
<g filter="url(#filter0_d_210_670)">
<path d="M677.036 618.311C662.526 591.751 648.006 568.531 633.526 548.551C628.686 541.881 623.846 535.591 619.016 529.651C599.406 506.141 578.136 486.951 555.506 472.341C613.786 438.831 659.896 392.631 693.596 333.711C706.686 310.741 717.236 286.691 725.216 261.531C745.376 198.191 694.566 134.241 626.766 134.241C626.766 172.621 620.106 208.581 606.566 242.351C593.056 276.151 574.556 305.351 551.046 330.471C527.576 355.601 499.976 375.071 467.926 389.401C461.436 392.291 454.846 394.901 448.186 397.181C448.086 348.611 447.996 300.001 447.866 251.431C449.816 251.591 452.546 251.871 455.756 252.481C477.746 256.611 492.196 269.851 499.976 277.161C506.136 282.941 514.826 292.411 522.276 306.291C531.136 297.641 541.016 286.741 550.696 273.371C561.166 258.911 568.806 245.151 574.376 233.391C562.406 223.061 547.316 211.731 528.866 201.131C499.116 184.061 471.136 174.931 449.806 169.841C449.776 168.321 449.806 165.741 449.836 162.571C450.126 144.111 451.396 139.671 450.066 131.061C449.026 124.551 448.446 120.671 445.556 116.261C440.596 108.721 431.046 102.911 420.106 103.001C405.466 103.101 396.986 113.741 395.726 115.361C390.626 122.031 389.656 128.961 389.396 132.071C389.426 145.031 389.426 157.991 389.426 170.991C388.716 171.151 387.446 171.431 385.856 171.821C369.326 175.661 356.636 179.351 354.106 179.951C327.616 186.271 305.146 199.581 285.696 217.631C261.796 239.801 246.996 267.031 240.756 298.921C233.516 336.061 236.726 372.431 251.636 406.801C264.036 435.421 284.496 458.681 311.346 476.341C327.966 487.301 345.116 497.151 363.616 504.331C366.276 505.351 368.976 506.301 371.696 507.221C373.806 507.951 375.366 508.401 376.306 508.681C379.256 509.601 383.676 511.001 389.746 513.061C389.816 517.571 389.906 522.111 389.976 526.621V527.381C389.746 584.471 389.526 641.591 389.296 698.671C387.706 698.131 385.396 697.301 382.606 696.191C382.606 696.191 371.696 691.521 361.756 686.021C339.356 673.631 325.946 653.431 317.536 630.971C308.376 606.511 294.836 595.551 268.446 594.631C244.256 593.771 224.616 616.901 226.076 638.221C228.026 666.651 241.656 690.951 259.386 712.681C268.416 723.741 278.606 733.581 289.906 742.101C292.986 744.451 304.066 752.621 320.946 760.871C335.326 767.921 358.576 777.261 389.976 781.611C389.296 797.371 389.296 810.451 389.486 820.211C389.646 828.981 389.906 833.081 392.666 837.491C398.376 846.731 410.556 850.551 420.266 850.231C421.496 850.201 437.636 849.441 445.526 837.521C448.026 833.771 448.646 830.211 449.846 823.071C451.306 814.431 450.426 809.891 450.526 791.591C450.556 787.711 450.596 784.571 450.656 782.571C467.136 781.341 491.286 777.581 517.896 765.921C536.946 757.571 551.736 747.601 562.396 739.141C554.646 726.421 546.806 712.531 539.146 697.461C532.096 683.611 525.956 670.241 520.586 657.541C515.836 663.181 511.576 667.501 508.546 670.431C497.126 681.441 483.106 694.791 462.346 699.751C458.096 700.771 454.006 701.371 450.166 701.661C450.136 699.021 450.066 695.151 450.006 690.451C449.256 632.951 451.626 608.361 450.166 556.331C450.066 553.381 449.936 548.231 449.676 541.751C454.806 545.281 461.816 550.101 470.686 556.391C471.306 556.831 471.496 556.961 471.696 557.121C475.006 559.471 483.386 565.731 493.836 576.181C501.566 583.901 509.126 592.641 516.536 602.361C531.176 621.261 546.086 645.311 561.826 673.711L580.656 707.701C623.516 785.181 706.306 833.441 796.346 833.441L677.026 618.311H677.036ZM390.206 404.231C388.126 404.291 384.976 404.261 381.306 403.591C353.546 398.541 330.296 363.881 330.816 331.541C331.076 315.691 334.646 302.151 341.396 290.621C352.366 271.781 368.276 262.851 374.776 259.301C381.046 255.871 386.656 253.771 390.656 252.471C390.296 278.711 389.946 304.951 389.556 331.221H389.456C389.716 355.551 389.946 379.891 390.206 404.221V404.231Z" fill="#02DF82"/>
</g>
</g>
<defs>
<filter id="filter0_d_210_670" x="222" y="103" width="578.346" height="755.25" filterUnits="userSpaceOnUse" color-interpolation-filters="sRGB">
<feFlood flood-opacity="0" result="BackgroundImageFix"/>
<feColorMatrix in="SourceAlpha" type="matrix" values="0 0 0 0 0 0 0 0 0 0 0 0 0 0 0 0 0 0 127 0" result="hardAlpha"/>
<feOffset dy="4"/>
<feGaussianBlur stdDeviation="2"/>
<feComposite in2="hardAlpha" operator="out"/>
<feColorMatrix type="matrix" values="0 0 0 0 0 0 0 0 0 0 0 0 0 0 0 0 0 0 0.25 0"/>
<feBlend mode="normal" in2="BackgroundImageFix" result="effect1_dropShadow_210_670"/>
<feBlend mode="normal" in="SourceGraphic" in2="effect1_dropShadow_210_670" result="shape"/>
</filter>
<clipPath id="clip0_210_670">
<rect width="955" height="955" fill="white"/>
</clipPath>
</defs>
</svg>
