<svg width="571" height="748" viewBox="0 0 571 748" fill="none" xmlns="http://www.w3.org/2000/svg">
<path d="M451.036 515.31C436.526 488.75 422.006 465.53 407.526 445.55C402.686 438.88 397.846 432.59 393.016 426.65C373.406 403.14 352.136 383.95 329.506 369.34C387.786 335.83 433.896 289.63 467.596 230.71C480.686 207.74 491.236 183.69 499.216 158.53C519.376 95.1901 468.566 31.2401 400.766 31.2401C400.766 69.6201 394.106 105.58 380.566 139.35C367.056 173.15 348.556 202.35 325.046 227.47C301.576 252.6 273.976 272.07 241.926 286.4C235.436 289.29 228.846 291.9 222.186 294.18C222.086 245.61 221.996 197 221.866 148.43C223.816 148.59 226.546 148.87 229.756 149.48C251.746 153.61 266.196 166.85 273.976 174.16C280.136 179.94 288.826 189.41 296.276 203.29C305.136 194.64 315.016 183.74 324.696 170.37C335.166 155.91 342.806 142.15 348.376 130.39C336.406 120.06 321.316 108.73 302.866 98.1301C273.116 81.0601 245.136 71.9301 223.806 66.84C223.776 65.3201 223.806 62.7401 223.836 59.5701C224.126 41.1101 225.396 36.6701 224.066 28.0601C223.026 21.5501 222.446 17.6701 219.556 13.2601C214.596 5.72006 205.046 -0.089945 194.106 5.49563e-05C179.466 0.100055 170.986 10.7401 169.726 12.3601C164.626 19.0301 163.656 25.9601 163.396 29.0701C163.426 42.0301 163.426 54.9901 163.426 67.9901C162.716 68.1501 161.446 68.4301 159.856 68.8201C143.326 72.66 130.636 76.3501 128.106 76.9501C101.616 83.2701 79.1465 96.58 59.6965 114.63C35.7965 136.8 20.9965 164.03 14.7565 195.92C7.51647 233.06 10.7265 269.43 25.6365 303.8C38.0365 332.42 58.4965 355.68 85.3465 373.34C101.966 384.3 119.116 394.15 137.616 401.33C140.276 402.35 142.976 403.3 145.696 404.22C147.806 404.95 149.366 405.4 150.306 405.68C153.256 406.6 157.676 408 163.746 410.06C163.816 414.57 163.906 419.11 163.976 423.62V424.38C163.746 481.47 163.526 538.59 163.296 595.67C161.706 595.13 159.396 594.3 156.606 593.19C156.606 593.19 145.696 588.52 135.756 583.02C113.356 570.63 99.9465 550.43 91.5365 527.97C82.3765 503.51 68.8365 492.55 42.4465 491.63C18.2565 490.77 -1.38353 513.9 0.0764675 535.22C2.02647 563.65 15.6565 587.95 33.3865 609.68C42.4165 620.74 52.6065 630.58 63.9065 639.1C66.9865 641.45 78.0665 649.62 94.9465 657.87C109.326 664.92 132.576 674.26 163.976 678.61C163.296 694.37 163.296 707.45 163.486 717.21C163.646 725.98 163.906 730.08 166.666 734.49C172.376 743.73 184.556 747.55 194.266 747.23C195.496 747.2 211.636 746.44 219.526 734.52C222.026 730.77 222.646 727.21 223.846 720.07C225.306 711.43 224.426 706.89 224.526 688.59C224.556 684.71 224.596 681.57 224.656 679.57C241.136 678.34 265.286 674.58 291.896 662.92C310.946 654.57 325.736 644.6 336.396 636.14C328.646 623.42 320.806 609.53 313.146 594.46C306.096 580.61 299.956 567.24 294.586 554.54C289.836 560.18 285.576 564.5 282.546 567.43C271.126 578.44 257.106 591.79 236.346 596.75C232.096 597.77 228.006 598.37 224.166 598.66C224.136 596.02 224.066 592.15 224.006 587.45C223.256 529.95 225.626 505.36 224.166 453.33C224.066 450.38 223.936 445.23 223.676 438.75C228.806 442.28 235.816 447.1 244.686 453.39C245.306 453.83 245.496 453.96 245.696 454.12C249.006 456.47 257.386 462.73 267.836 473.18C275.566 480.9 283.126 489.64 290.536 499.36C305.176 518.26 320.086 542.31 335.826 570.71L354.656 604.7C397.516 682.18 480.306 730.44 570.346 730.44L451.026 515.31H451.036ZM164.206 301.23C162.126 301.29 158.976 301.26 155.306 300.59C127.546 295.54 104.296 260.88 104.816 228.54C105.076 212.69 108.646 199.15 115.396 187.62C126.366 168.78 142.276 159.85 148.776 156.3C155.046 152.87 160.656 150.77 164.656 149.47C164.296 175.71 163.946 201.95 163.556 228.22H163.456C163.716 252.55 163.946 276.89 164.206 301.22V301.23Z" fill="#02DF82"/>
</svg>
